<?xml version="1.0" standalone="no"?>
<!DOCTYPE svg PUBLIC "-//W3C//DTD SVG 20010904//EN"
 "http://www.w3.org/TR/2001/REC-SVG-20010904/DTD/svg10.dtd">
<svg version="1.0" xmlns="http://www.w3.org/2000/svg"
 width="405.000000pt" height="640.000000pt" viewBox="0 0 405.000000 640.000000"
 preserveAspectRatio="xMidYMid meet">

<g transform="translate(0.000000,640.000000) scale(0.100000,-0.100000)"
fill="#000000" stroke="none">
<path d="M474 6355 c-27 -41 -44 -133 -43 -230 l1 -90 13 47 c17 62 66 166
105 223 18 26 30 48 28 49 -37 32 -83 32 -104 1z"/>
<path d="M572 6304 c-34 -41 -96 -163 -88 -172 3 -3 6 -1 6 4 0 6 7 19 16 30
14 17 15 17 10 1 -10 -30 12 -9 54 53 45 67 50 82 18 54 l-23 -19 21 25 c30
36 36 48 25 54 -5 4 -23 -10 -39 -30z m-32 -109 c-7 -9 -15 -13 -18 -10 -3 2
1 11 8 20 7 9 15 13 18 10 3 -2 -1 -11 -8 -20z"/>
<path d="M744 6298 l-19 -23 23 19 c21 18 27 26 19 26 -2 0 -12 -10 -23 -22z"/>
<path d="M610 6248 c-36 -50 -37 -61 -6 -78 27 -14 118 -106 186 -187 24 -29
47 -53 52 -53 4 0 23 10 42 22 l33 22 -80 90 c-44 50 -87 102 -96 116 -9 13
-28 38 -43 54 -16 17 -28 33 -28 37 0 4 -7 9 -15 13 -10 4 -25 -9 -45 -36z"/>
<path d="M544 6153 c-12 -40 -35 -85 -40 -80 -4 3 1 20 9 36 21 41 8 39 -21
-3 -27 -40 -52 -116 -52 -158 0 -31 64 -340 82 -397 l11 -34 22 55 c35 87 91
166 181 257 46 47 84 87 84 89 0 8 -121 150 -157 183 -73 69 -109 84 -119 52z"/>
<path d="M2462 6040 c-18 -11 -71 -58 -116 -103 -45 -45 -109 -102 -142 -126
-32 -25 -63 -48 -68 -53 -5 -4 40 -54 100 -111 112 -107 202 -221 184 -232 -5
-3 -10 -2 -10 3 0 15 -141 194 -147 188 -3 -3 10 -27 30 -53 35 -48 67 -106
67 -119 0 -5 -29 35 -65 87 -35 52 -86 118 -113 146 -58 61 -148 121 -194 130
-18 3 -53 15 -78 26 -66 28 -170 57 -208 57 -18 0 -43 7 -56 15 -34 23 -231
23 -320 0 -84 -21 -189 -64 -264 -107 -48 -27 -53 -32 -35 -39 12 -4 24 -12
27 -18 9 -14 -21 -3 -54 19 -43 30 -65 32 -93 9 -15 -11 -27 -17 -27 -13 0 4
-11 -3 -25 -16 -14 -13 -25 -27 -25 -32 0 -5 -21 -34 -47 -66 -54 -66 -116
-193 -132 -270 -6 -29 -11 -85 -12 -125 -1 -40 -5 -99 -9 -132 -6 -51 -7 -41
-9 65 -1 99 3 141 20 200 27 98 80 211 130 277 51 68 36 68 -27 1 -69 -74
-120 -146 -150 -214 -15 -33 -29 -54 -31 -47 -6 16 48 119 91 176 45 59 45 66
2 33 -19 -14 -38 -26 -42 -26 -13 0 19 30 69 64 29 20 92 64 141 100 50 36 95
62 100 58 6 -3 -11 19 -38 51 l-48 57 -39 -30 c-21 -17 -59 -54 -85 -83 -134
-149 -202 -315 -163 -400 8 -18 8 -30 0 -45 -6 -11 -7 -23 -3 -26 13 -8 1 -70
-14 -79 -8 -5 -14 -24 -14 -46 0 -54 47 -235 81 -310 33 -74 38 -105 7 -46
-27 52 -87 228 -90 265 -3 46 -18 23 -18 -28 0 -67 15 -112 75 -233 97 -195
218 -358 364 -489 93 -84 140 -110 205 -111 38 0 46 -3 31 -9 -11 -5 -33 -9
-50 -10 -29 -2 -29 -2 15 -23 39 -19 62 -22 180 -22 114 0 147 4 210 24 106
33 268 111 314 151 70 62 215 268 277 395 71 147 89 209 96 345 9 193 -47 352
-173 489 -36 39 -61 71 -56 71 5 0 35 -27 66 -60 246 -266 245 -628 -4 -1001
-35 -52 -77 -112 -95 -134 -37 -47 -48 -65 -41 -65 19 0 263 210 286 247 16
25 46 97 67 161 37 115 38 120 38 267 -1 165 -5 183 -71 283 -20 29 -33 56
-30 59 3 3 13 -8 23 -26 10 -17 23 -31 29 -31 6 0 23 -32 39 -71 26 -67 28
-69 45 -52 10 10 16 21 13 26 -2 4 0 7 4 7 5 0 15 17 22 38 8 20 17 39 21 42
20 13 120 357 134 460 2 14 9 62 16 108 7 46 10 85 7 89 -3 3 -32 -19 -64 -48
-32 -30 -71 -65 -88 -79 -41 -35 -15 1 45 61 25 25 55 57 68 72 13 14 28 25
34 24 6 -1 12 6 13 16 5 25 -60 23 -103 -3z m-812 -190 c99 -11 264 -55 256
-69 -3 -4 12 -13 33 -19 81 -25 269 -182 340 -285 17 -26 30 -47 27 -47 -2 0
-39 40 -81 90 -70 82 -174 171 -250 215 -23 13 -21 10 10 -16 124 -104 223
-223 261 -315 26 -61 9 -48 -31 26 -105 191 -290 342 -476 389 -174 44 -340
21 -624 -84 l-20 -7 20 14 c22 16 164 70 233 88 24 6 78 15 120 19 42 5 79 9
82 9 3 1 48 -3 100 -8z"/>
<path d="M2778 5963 c7 -3 16 -2 19 1 4 3 -2 6 -13 5 -11 0 -14 -3 -6 -6z"/>
<path d="M897 5939 c-20 -11 -37 -25 -37 -32 0 -7 17 -30 38 -50 l37 -37 45
30 c25 17 50 28 57 26 24 -10 1 20 -35 44 -56 38 -65 39 -105 19z"/>
<path d="M2690 5935 c-14 -8 -20 -14 -14 -15 5 0 19 7 30 15 24 18 16 19 -16
0z"/>
<path d="M417 5373 c-55 -110 -62 -146 -62 -333 l0 -175 37 -88 c72 -173 263
-439 304 -423 8 3 13 2 10 -3 -8 -12 121 -131 142 -131 10 0 29 7 42 16 l25
17 -23 -24 -22 -24 37 -33 38 -33 -46 26 -46 25 -105 -109 c-58 -60 -119 -130
-136 -156 l-31 -47 4 -186 c3 -103 5 -199 5 -214 1 -24 5 -28 33 -29 l32 -1
-33 -11 -34 -10 7 -81 c8 -104 41 -174 135 -283 67 -77 89 -111 54 -82 -21 17
-123 143 -157 193 l-26 39 2 -50 c2 -27 8 -55 14 -63 7 -8 40 -48 73 -87 34
-40 57 -73 53 -73 -4 0 -35 31 -68 69 l-60 69 -3 -49 c-4 -62 32 -210 55 -226
9 -7 11 -13 5 -13 -17 0 -15 -32 5 -59 9 -14 11 -21 5 -17 -29 18 -8 -5 30
-33 23 -17 38 -31 33 -31 -5 0 -17 8 -28 18 -19 16 -20 16 -15 -10 3 -15 1
-25 -3 -22 -12 7 -17 37 51 -301 51 -254 126 -650 161 -854 6 -29 8 -56 5 -58
-3 -3 -8 12 -11 33 -4 22 -8 44 -10 49 -6 18 -5 -87 1 -171 l7 -81 63 -31 c43
-21 64 -38 64 -49 0 -10 -13 -69 -28 -130 -15 -62 -25 -113 -22 -113 4 0 44
129 58 190 21 94 8 377 -28 582 -29 162 -28 160 -20 151 11 -11 46 -199 60
-313 21 -187 17 -401 -11 -564 -6 -32 -7 -62 -2 -66 15 -13 94 -40 103 -35 5
3 24 -4 42 -15 18 -11 41 -20 51 -20 9 0 17 -6 17 -14 0 -7 7 -20 16 -27 15
-12 16 -8 11 41 -3 30 -10 76 -16 102 -17 79 -50 414 -56 583 -9 252 -12 684
-6 755 4 36 10 -131 15 -370 5 -239 11 -489 15 -555 l6 -120 7 130 c5 72 9
171 10 220 l2 90 7 -70 c4 -47 6 -23 4 75 -2 80 0 132 4 115 9 -39 21 109 22
289 1 72 4 158 8 191 4 33 10 -203 14 -525 4 -322 9 -619 11 -660 3 -48 2 -66
-4 -50 l-8 25 -1 -25 c-2 -51 10 -69 53 -83 53 -18 81 -59 96 -145 11 -59 16
-70 42 -85 38 -22 50 -21 90 3 18 11 45 20 59 20 48 0 71 47 88 185 28 220 34
256 38 252 5 -6 -16 -258 -27 -317 -5 -25 -7 -47 -5 -49 2 -2 15 -1 29 3 21 5
25 13 30 63 8 71 46 667 47 743 1 48 2 51 10 25 6 -22 7 -14 4 30 -2 33 -1 52
3 42 4 -10 16 83 25 205 10 123 22 239 27 258 15 65 18 107 -60 -905 -17 -220
-32 -419 -34 -442 -1 -24 2 -43 7 -43 6 0 70 29 143 65 116 58 132 69 136 94
l4 27 -99 -44 c-54 -24 -100 -42 -102 -40 -3 2 40 26 95 53 l99 49 6 55 c11
103 25 134 19 43 l-6 -84 23 13 c117 62 156 129 113 194 -9 14 -20 25 -24 25
-5 0 -14 -26 -21 -57 -16 -75 -29 -90 -17 -21 5 29 11 78 13 109 2 30 20 113
40 185 19 71 49 215 65 319 66 416 80 495 107 618 15 70 30 127 34 127 3 0 -8
-73 -26 -162 -53 -268 -66 -340 -62 -344 5 -6 180 738 179 761 -2 24 25 85 37
85 5 0 24 24 42 53 19 28 37 54 41 55 9 4 11 32 2 32 -3 0 -24 -16 -47 -35
-22 -19 -45 -35 -51 -35 -6 1 11 21 39 45 27 24 48 46 45 48 -3 2 -16 10 -28
17 -21 10 -27 9 -43 -9 -10 -11 -19 -25 -19 -31 0 -5 -4 -10 -10 -10 -5 0 -10
-5 -10 -11 0 -6 -25 -48 -56 -92 -52 -75 -57 -87 -63 -154 -4 -40 -6 -71 -6
-70 1 1 27 30 58 64 34 37 57 56 57 47 0 -9 -11 -26 -24 -38 -78 -70 -85 -85
-106 -237 -22 -156 -37 -199 -26 -79 19 228 26 308 31 340 5 34 5 35 -12 15
-41 -46 -54 -46 -20 -1 22 29 37 60 37 76 0 15 3 42 6 59 7 32 7 32 -46 -21
-52 -52 -51 -44 2 19 15 18 32 50 37 70 24 93 54 657 41 788 -13 144 -26 179
-79 226 -46 41 -261 189 -275 189 -4 0 -42 -28 -84 -63 -72 -59 -179 -127
-198 -127 -4 0 35 29 87 65 51 35 112 80 134 99 l39 33 -51 26 -50 26 -87 -84
c-151 -148 -262 -208 -408 -220 -88 -8 -191 11 -269 50 -70 36 -182 111 -206
138 -18 21 -18 21 4 7 11 -8 54 -37 94 -64 85 -58 162 -91 264 -113 69 -15 81
-15 151 0 141 30 264 106 378 229 32 35 70 77 86 93 45 49 155 221 119 188
-31 -30 -30 -10 1 22 58 60 25 49 -61 -21 -46 -37 -106 -81 -133 -99 -28 -18
-79 -55 -113 -83 -138 -110 -232 -154 -364 -172 -106 -14 -182 -3 -275 41 -38
17 -75 33 -81 35 -20 4 -141 73 -148 84 -3 6 -14 10 -24 10 -10 0 -26 9 -36
20 -10 11 -21 18 -25 15 -16 -10 -152 144 -214 244 -116 184 -158 348 -176
689 -5 85 -11 156 -13 159 -3 3 -17 -17 -30 -44z m1117 -2384 c-13 -144 -15
-243 -10 -454 4 -148 9 -288 11 -310 l5 -40 -9 35 c-12 43 -31 345 -31 478 0
93 23 377 36 450 14 76 13 14 -2 -159z m-343 -38 c41 -208 110 -483 125 -500
2 -3 2 112 -2 255 -3 150 -1 299 5 354 l10 95 -5 -135 c-4 -145 9 -483 27
-645 6 -55 26 -183 44 -285 55 -302 92 -650 73 -697 -5 -14 -7 -14 -7 -3 -19
401 -62 672 -176 1100 -73 273 -147 610 -144 654 1 29 23 -52 50 -193z m556
122 c-3 -10 -5 -4 -5 12 0 17 2 24 5 18 2 -7 2 -21 0 -30z m3 -838 c-6 -93
-13 -190 -15 -215 l-5 -45 15 43 c17 53 37 184 71 477 35 301 41 346 43 310 2
-54 -39 -444 -55 -529 -5 -21 -3 -27 7 -21 9 6 10 2 5 -16 -29 -99 -40 -185
-59 -459 -2 -25 -5 7 -6 70 l-3 115 -15 -60 c-42 -177 -96 -536 -126 -850 -3
-22 -2 16 0 85 5 141 21 273 63 536 54 331 79 665 82 1094 l3 285 3 -325 c2
-179 -2 -401 -8 -495z m-930 652 c-1 -7 -12 2 -25 18 -32 39 -32 58 0 22 14
-15 25 -33 25 -40z m1065 -357 c-25 -320 -66 -703 -76 -720 -11 -17 -12 -31
27 335 41 389 43 425 44 536 0 59 3 122 8 140 15 69 14 -82 -3 -291z m-10
-1637 c-8 -42 -24 -77 -32 -70 -5 5 29 107 35 107 3 0 1 -17 -3 -37z"/>
<path d="M1321 2424 c0 -11 3 -14 6 -6 3 7 2 16 -1 19 -3 4 -6 -2 -5 -13z"/>
<path d="M2541 5294 c0 -11 3 -14 6 -6 3 7 2 16 -1 19 -3 4 -6 -2 -5 -13z"/>
<path d="M2331 5088 c-1 -108 -18 -215 -46 -299 -14 -40 -25 -80 -25 -90 0 -9
-27 -60 -60 -112 -33 -53 -60 -98 -60 -101 0 -10 -62 -108 -103 -165 l-40 -54
24 -18 c13 -10 37 -21 52 -25 34 -7 53 7 112 88 23 32 44 56 46 53 3 -2 28 38
56 90 28 52 46 92 40 88 -7 -3 -4 3 6 15 11 12 16 26 11 33 -5 8 -3 10 6 4 9
-6 10 -2 5 15 -4 12 -3 20 1 17 5 -3 9 9 10 26 1 18 7 71 13 119 14 100 4 219
-28 328 l-19 65 -1 -77z"/>
<path d="M2410 5131 c0 -6 4 -13 10 -16 6 -3 7 1 4 9 -7 18 -14 21 -14 7z"/>
<path d="M2425 5079 c-4 -6 -5 -12 -2 -15 2 -3 7 2 10 11 7 17 1 20 -8 4z"/>
<path d="M510 4914 c-1 -49 80 -245 131 -315 89 -122 242 -269 327 -313 22
-11 6 9 -54 66 -149 143 -250 278 -351 473 -29 55 -52 95 -53 89z"/>
<path d="M2414 4805 c-3 -8 -4 -20 -2 -27 3 -7 7 -1 10 15 6 29 1 36 -8 12z"/>
<path d="M646 4263 c-38 -61 -40 -79 -3 -46 59 54 43 27 -24 -39 -62 -61 -85
-93 -127 -175 -27 -56 -56 -128 -62 -160 -14 -67 -8 -257 10 -345 l12 -56 29
10 c18 6 29 17 29 28 0 11 4 21 8 24 5 3 9 58 11 122 1 65 4 121 6 124 5 8 17
105 16 134 0 24 38 126 48 126 4 0 5 -17 3 -37 l-4 -38 25 33 c13 17 68 77
121 133 54 55 96 102 94 103 -2 1 -35 28 -74 59 -39 31 -74 57 -77 57 -3 0
-21 -26 -41 -57z m52 -52 c-13 -15 -50 -59 -84 -98 -33 -38 -77 -97 -98 -132
-21 -34 -40 -60 -43 -57 -13 13 90 159 176 249 67 70 89 87 49 38z m-177 -423
c-24 -60 -51 -111 -51 -97 0 17 34 100 46 112 13 12 14 8 5 -15z"/>
<path d="M1645 4224 c-94 -42 -181 -64 -250 -64 -84 0 -162 -12 -140 -21 33
-13 155 -10 227 5 66 15 195 69 233 99 28 22 21 21 -70 -19z"/>
<path d="M2540 4129 c0 -4 7 -23 15 -43 8 -20 13 -36 11 -36 -3 0 1 -15 9 -34
8 -18 27 -98 43 -177 27 -132 29 -153 21 -249 -5 -58 -13 -135 -19 -172 -14
-91 -11 -125 4 -67 7 25 18 54 25 65 10 16 10 15 5 -11 -4 -16 -22 -78 -40
-136 -19 -58 -34 -117 -34 -130 0 -14 -5 -30 -11 -36 -18 -18 10 -27 30 -9 16
15 72 147 100 237 16 51 3 182 -25 260 -31 87 -30 95 6 33 42 -75 53 -157 48
-361 l-5 -175 24 58 c61 143 90 388 64 526 -19 96 -110 279 -182 363 -48 57
-88 99 -89 94z"/>
<path d="M2468 3856 c18 -83 20 -457 3 -654 -7 -84 -11 -155 -9 -157 6 -7 88
149 88 168 0 8 5 17 12 19 8 3 13 45 15 139 2 74 7 150 10 169 7 35 7 35 13
-15 l7 -50 1 55 c3 81 -16 218 -35 254 -22 42 -71 102 -98 120 l-21 14 14 -62z"/>
<path d="M362 3634 c-6 -54 -14 -136 -17 -181 l-5 -83 45 28 c41 24 46 30 42
57 -16 113 -41 252 -47 264 -4 8 -12 -30 -18 -85z"/>
<path d="M2890 3695 c0 -5 5 -17 10 -25 5 -8 10 -10 10 -5 0 6 -5 17 -10 25
-5 8 -10 11 -10 5z"/>
<path d="M532 3430 c0 -14 2 -19 5 -12 2 6 2 18 0 25 -3 6 -5 1 -5 -13z"/>
<path d="M542 3380 c0 -14 2 -19 5 -12 2 6 2 18 0 25 -3 6 -5 1 -5 -13z"/>
<path d="M2832 3325 c0 -16 2 -22 5 -12 2 9 2 23 0 30 -3 6 -5 -1 -5 -18z"/>
<path d="M406 3290 c-25 -23 -43 -47 -40 -52 4 -6 10 -6 17 1 20 20 31 12 12
-9 -16 -18 -16 -24 -5 -66 7 -25 20 -48 27 -51 10 -4 11 -8 4 -12 -17 -11 53
-145 99 -190 72 -70 78 -34 24 139 -20 63 -46 150 -59 193 -13 43 -25 81 -28
84 -3 2 -26 -14 -51 -37z"/>
<path d="M2701 3204 c0 -11 3 -14 6 -6 3 7 2 16 -1 19 -3 4 -6 -2 -5 -13z"/>
<path d="M305 3148 c-94 -105 -152 -215 -161 -307 -6 -60 -14 -65 -15 -10 l-1
44 -14 -58 c-16 -68 -32 -263 -27 -327 9 -104 25 -191 55 -293 17 -59 33 -105
35 -103 4 4 -7 106 -22 204 -2 12 1 22 6 22 5 0 9 -4 9 -9 0 -6 9 -70 20 -143
30 -204 69 -327 171 -530 22 -43 35 -78 29 -78 -5 0 -10 7 -10 15 0 8 -5 15
-10 15 -6 0 11 -41 36 -92 62 -123 74 -142 87 -129 6 6 24 11 39 11 16 0 37 5
47 12 16 10 31 5 92 -25 74 -37 74 -37 77 -14 5 41 -36 280 -63 362 -84 255
-313 1120 -300 1133 3 3 5 3 5 -1 0 -29 278 -1035 292 -1057 7 -11 8 -9 4 9
-3 13 -1 20 3 15 5 -5 14 -40 20 -79 32 -184 61 -372 61 -392 0 -17 12 -29 50
-48 27 -14 53 -25 58 -25 4 0 5 37 1 83 -4 45 -12 145 -19 222 -13 161 -50
383 -115 705 -65 317 -94 443 -105 454 -20 20 -9 -71 45 -383 87 -504 153
-956 141 -968 -8 -8 -15 30 -41 232 -22 167 -76 502 -140 865 -13 75 -13 75
-16 -130 -3 -216 -5 -195 -17 171 l-7 227 -63 88 c-34 49 -81 122 -103 162
-40 71 -52 82 -64 62 -3 -5 -11 -10 -17 -10 -7 0 -2 9 10 20 26 24 27 39 8 85
-8 18 -12 36 -8 39 3 3 1 6 -5 6 -6 0 -32 -24 -58 -52z m-178 -415 c-3 -10 -5
-4 -5 12 0 17 2 24 5 18 2 -7 2 -21 0 -30z"/>
<path d="M2686 3093 c-6 -14 -5 -15 5 -6 7 7 10 15 7 18 -3 3 -9 -2 -12 -12z"/>
<path d="M2490 3035 c-27 -40 -50 -115 -50 -168 0 -18 1 -18 19 4 29 37 70
123 80 168 12 56 -9 55 -49 -4z"/>
<path d="M2699 2988 c0 -2 -3 -19 -5 -38 -23 -170 -232 -988 -256 -998 -18 -8
-5 -38 40 -96 27 -33 52 -68 57 -76 15 -27 -34 22 -72 72 -21 26 -40 48 -43
48 -13 0 -81 -303 -95 -420 -17 -146 -20 -304 -5 -295 6 3 10 15 10 25 0 10 4
20 8 22 8 3 48 167 83 335 l13 62 16 -37 c10 -20 34 -59 54 -85 21 -27 35 -52
32 -55 -7 -6 -3 -11 -60 67 -35 48 -46 58 -44 40 0 -13 -7 -81 -16 -150 -10
-69 -16 -139 -14 -155 l4 -29 46 47 c63 63 86 122 144 363 14 61 28 112 30
114 2 3 14 -5 27 -17 13 -12 26 -22 29 -22 3 0 9 41 13 91 7 101 21 113 17 16
-2 -45 2 -75 16 -105 l19 -43 46 105 c50 113 88 238 108 351 12 66 29 109 29
72 0 -73 -70 -310 -134 -455 -23 -51 -35 -90 -31 -102 8 -24 23 -26 31 -5 4 8
11 12 17 8 5 -3 7 -1 4 4 -4 6 20 66 52 134 115 243 132 321 107 504 -15 115
-60 335 -76 370 -5 11 -16 45 -26 75 -9 30 -30 81 -45 112 -25 50 -27 59 -14
71 11 12 12 17 2 24 -21 17 -43 25 -24 10 17 -14 14 -52 -4 -41 -5 3 -6 11 -3
17 5 8 4 9 -4 2 -8 -8 -8 -21 2 -50 19 -54 28 -207 17 -275 -8 -52 -9 -50 -10
45 -2 170 -26 285 -58 285 -8 0 -13 6 -10 13 2 6 13 11 23 10 16 -2 15 -1 -3
9 -13 6 -23 15 -23 20 0 7 -18 12 -21 6z"/>
<path d="M2631 2894 c-40 -64 -84 -186 -101 -284 -5 -25 -42 -191 -83 -370
-41 -179 -81 -352 -87 -385 -7 -33 -14 -66 -17 -75 -4 -13 -3 -13 5 0 19 29
82 231 112 357 41 169 100 440 106 478 3 29 19 114 30 163 2 12 8 22 13 22 11
0 -18 -161 -75 -416 -24 -111 -44 -205 -43 -210 1 -5 28 97 60 226 72 283 58
221 124 543 2 9 2 17 1 17 -1 0 -21 -30 -45 -66z m-20 -77 c-10 -9 -11 -8 -5
6 3 10 9 15 12 12 3 -3 0 -11 -7 -18z"/>
<path d="M3025 2780 c10 -11 20 -20 23 -20 3 0 -3 9 -13 20 -10 11 -20 20 -23
20 -3 0 3 -9 13 -20z"/>
<path d="M3612 2353 c-30 -76 -18 -133 37 -190 17 -18 31 -38 31 -44 0 -6 -9
-1 -20 12 -24 30 -24 26 -1 -63 23 -84 45 -227 39 -254 -2 -11 -15 46 -28 126
l-25 145 -6 -65 c-3 -37 -6 -50 -7 -30 -3 46 -38 204 -51 229 -6 11 -20 22
-31 26 -11 3 -19 11 -17 18 1 6 -8 13 -20 15 -13 2 -23 -2 -23 -8 0 -6 6 -8
13 -5 6 4 1 -2 -12 -13 l-25 -20 13 -103 c7 -57 14 -115 17 -127 3 -13 1 -21
-5 -18 -5 3 -14 45 -21 93 -6 49 -14 101 -17 118 l-5 29 -19 -23 c-32 -40 -32
-78 4 -218 l33 -132 25 66 c26 71 43 94 28 38 -21 -73 -120 -289 -166 -358
-57 -87 -148 -178 -208 -207 -55 -27 -117 -24 -172 7 -40 23 -42 23 -48 4 -3
-11 -28 -52 -55 -93 -28 -40 -50 -75 -50 -79 0 -3 -36 -43 -80 -89 -44 -46
-79 -89 -77 -94 7 -23 184 -147 237 -167 40 -16 80 -22 149 -22 l93 -2 47 51
c54 60 141 199 257 409 46 83 88 157 94 165 20 29 -21 -66 -57 -130 -151 -274
-224 -391 -277 -449 l-31 -33 35 7 c104 22 246 102 285 161 19 27 70 174 125
354 17 58 19 60 14 20 -4 -25 -26 -108 -49 -185 -24 -77 -42 -141 -40 -143 1
-2 28 34 58 80 94 142 157 283 187 423 25 111 4 358 -45 542 -28 107 -92 253
-110 253 -7 0 -17 -12 -23 -27z m25 -490 c-3 -50 -16 -107 -35 -159 -34 -92
-123 -286 -129 -280 -2 2 18 54 46 115 62 138 100 257 108 338 8 90 17 78 10
-14z m-147 -147 c-13 -71 -99 -256 -161 -347 -57 -85 -134 -165 -169 -177 -22
-8 -37 -6 -67 9 -39 19 -186 159 -167 159 5 0 34 -25 64 -56 69 -70 131 -108
162 -99 107 32 332 419 339 585 1 19 2 20 6 6 3 -10 0 -46 -7 -80z"/>
<path d="M3402 2334 c-69 -54 -77 -114 -36 -264 33 -120 30 -232 -9 -355 -15
-43 -24 -81 -22 -83 7 -7 75 106 91 151 19 51 13 135 -16 225 -29 93 -27 157
10 211 26 37 29 49 23 90 -3 25 -6 47 -7 48 -1 1 -16 -9 -34 -23z"/>
<path d="M3759 2313 c-13 -17 -13 -17 6 -3 11 8 22 16 24 17 2 2 0 3 -6 3 -6
0 -17 -8 -24 -17z"/>
<path d="M3151 1854 c0 -11 3 -14 6 -6 3 7 2 16 -1 19 -3 4 -6 -2 -5 -13z"/>
<path d="M3962 1840 c0 -14 2 -19 5 -12 2 6 2 18 0 25 -3 6 -5 1 -5 -13z"/>
<path d="M3131 1764 c0 -11 3 -14 6 -6 3 7 2 16 -1 19 -3 4 -6 -2 -5 -13z"/>
<path d="M2620 1662 c-7 -31 -22 -99 -35 -149 -16 -65 -19 -93 -11 -93 27 0
79 129 91 222 6 46 4 55 -14 65 -18 12 -20 9 -31 -45z"/>
<path d="M2702 1567 c-11 -12 -39 -53 -61 -91 -46 -80 -45 -87 27 -151 67 -59
104 -85 121 -85 15 0 111 128 111 148 0 5 -13 27 -29 49 -16 23 -27 44 -24 47
4 3 4 6 1 6 -4 0 -26 -28 -51 -63 -50 -70 -97 -117 -63 -62 11 17 31 46 46 65
34 44 56 85 41 76 -6 -4 -11 0 -11 8 0 9 -7 16 -16 16 -8 0 -13 4 -10 9 4 5 1
11 -6 13 -7 3 -38 -31 -70 -74 -32 -43 -60 -78 -64 -78 -7 0 0 12 51 85 57 81
57 81 42 94 -11 8 -19 5 -35 -12z"/>
<path d="M2272 1458 c-36 -158 -37 -173 -14 -203 11 -14 23 -22 25 -18 6 11
21 313 15 313 -3 0 -14 -42 -26 -92z"/>
<path d="M1274 1400 c0 -63 1 -89 3 -57 2 31 2 83 0 115 -2 31 -3 5 -3 -58z"/>
<path d="M3886 1395 c-9 -26 -7 -32 5 -12 6 10 9 21 6 23 -2 3 -7 -2 -11 -11z"/>
<path d="M585 1380 c-9 -15 -11 -14 65 -45 92 -38 99 -40 65 -18 -85 55 -124
73 -130 63z"/>
<path d="M2570 1328 c-11 -23 -20 -49 -20 -57 0 -7 -9 -22 -21 -32 -18 -15
-19 -20 -8 -32 8 -8 39 -44 69 -81 l54 -67 68 73 c37 40 67 76 68 79 0 3 -19
20 -43 37 -24 17 -67 51 -95 77 l-52 47 -20 -44z"/>
<path d="M547 1336 c-23 -27 -21 -45 8 -87 13 -20 21 -40 17 -44 -4 -5 -2 -5
4 -2 7 4 17 0 24 -8 11 -13 19 -8 61 37 26 29 48 49 49 45 0 -4 -20 -29 -45
-55 l-44 -48 22 -25 c27 -31 111 -99 122 -99 4 0 6 47 3 105 -3 58 -1 105 4
105 7 0 13 -86 12 -187 0 -24 2 -43 6 -43 10 0 70 194 62 201 -4 4 -59 28
-122 54 -63 26 -127 52 -141 59 -23 11 -28 10 -42 -8z"/>
<path d="M3866 1345 c-9 -26 -7 -32 5 -12 6 10 9 21 6 23 -2 3 -7 -2 -11 -11z"/>
<path d="M800 1286 c0 -2 20 -16 45 -29 25 -14 45 -22 45 -18 0 4 -20 17 -45
29 -25 12 -45 20 -45 18z"/>
<path d="M1284 1165 c0 -55 1 -76 3 -47 2 29 2 74 0 100 -2 26 -3 2 -3 -53z"/>
<path d="M922 1217 c9 -7 24 -17 34 -23 14 -8 15 -14 6 -30 -10 -17 -11 -17
-12 -1 0 15 -52 57 -71 57 -3 0 -19 -42 -34 -92 -15 -51 -30 -98 -32 -103 -2
-6 17 -21 43 -33 l46 -23 -7 116 c-5 84 -4 115 4 115 7 0 11 -6 10 -12 -1 -7
0 -44 1 -83 l2 -70 15 53 c26 88 32 58 8 -38 -22 -87 -22 -91 -5 -100 27 -15
28 -14 40 33 6 23 17 65 25 92 29 105 30 100 -25 129 -52 27 -77 34 -48 13z"/>
<path d="M2471 1157 c-38 -55 -38 -67 -6 -97 17 -16 23 -30 19 -44 -3 -14 -2
-17 4 -8 10 15 38 7 46 -14 8 -20 18 -18 53 15 l32 29 78 -75 c93 -89 227
-191 262 -200 18 -4 43 3 89 28 35 19 66 37 68 40 2 3 -29 7 -69 8 -128 3
-194 32 -345 151 -38 30 -79 69 -91 85 -12 17 -41 52 -65 79 l-43 49 -32 -46z"/>
<path d="M552 1136 c18 -27 45 -62 61 -77 29 -29 144 -119 152 -119 3 0 5 19
5 43 0 45 -2 48 -85 107 -18 13 -19 13 -6 -3 7 -9 10 -17 5 -17 -5 0 -22 16
-37 35 -29 36 -51 44 -60 23 -4 -9 -17 -1 -37 22 l-32 35 34 -49z"/>
<path d="M2402 1150 c0 -14 2 -19 5 -12 2 6 2 18 0 25 -3 6 -5 1 -5 -13z"/>
<path d="M3743 1092 c-24 -36 -41 -67 -39 -69 2 -2 22 26 46 62 24 36 41 67
39 69 -2 2 -23 -26 -46 -62z"/>
<path d="M432 1092 c-23 -31 -58 -88 -76 -127 -31 -65 -33 -74 -26 -130 8 -67
31 -119 55 -129 21 -8 119 -8 140 0 14 6 13 8 -6 22 -58 40 -67 170 -19 271
27 56 48 132 32 116 -3 -2 -11 4 -19 15 -22 31 -34 25 -81 -38z"/>
<path d="M1313 1110 c0 -25 2 -35 4 -22 2 12 2 32 0 45 -2 12 -4 2 -4 -23z"/>
<path d="M565 1080 c30 -52 175 -211 186 -204 22 13 7 50 -32 78 -22 15 -68
54 -101 85 -34 31 -58 49 -53 41z"/>
<path d="M2200 1044 c-41 -28 -67 -53 -72 -69 -3 -14 -4 -25 -1 -25 15 0 93
56 93 67 0 7 6 10 13 7 18 -7 39 20 35 44 -3 17 -10 15 -68 -24z"/>
<path d="M518 1004 c-43 -91 -48 -162 -16 -224 l23 -45 61 -3 c61 -3 62 -2 72
28 l11 30 -40 -6 c-26 -4 -39 -3 -39 5 0 6 17 11 39 11 40 0 62 14 82 51 9 17
2 30 -48 86 -32 36 -70 81 -85 101 l-28 35 -32 -69z"/>
<path d="M1292 983 l-2 -81 35 -12 c41 -14 62 -48 72 -116 5 -36 11 -48 30
-55 13 -5 26 -9 28 -9 6 0 -6 83 -21 144 -15 64 -31 81 -80 91 -42 7 -52 21
-57 75 -2 28 -4 14 -5 -37z"/>
<path d="M2385 1050 c-5 -8 -8 -87 -6 -147 1 -29 22 -29 47 -2 10 11 28 26 39
32 18 9 19 9 5 -8 -14 -17 -14 -17 7 -7 12 7 25 18 30 25 10 17 13 38 4 32 -5
-2 -21 9 -37 26 -36 38 -81 63 -89 49z"/>
<path d="M2592 997 c-12 -13 -22 -26 -22 -30 0 -21 313 -207 327 -194 2 2 -14
15 -34 29 -21 14 -84 68 -139 122 -56 53 -104 96 -106 96 -3 0 -14 -10 -26
-23z"/>
<path d="M794 973 c-3 -16 -7 -33 -9 -39 -2 -7 19 -24 46 -38 52 -29 53 -29
62 26 4 24 -2 31 -39 53 -23 14 -45 25 -48 25 -3 0 -8 -12 -12 -27z"/>
<path d="M2183 964 c-59 -39 -61 -44 -39 -137 20 -84 26 -87 92 -53 l56 29 -5
41 c-3 23 -9 49 -13 59 -6 17 -8 17 -33 -5 l-26 -23 20 25 c11 14 25 30 32 36
9 8 7 16 -10 36 l-22 26 -52 -34z"/>
<path d="M3445 964 c-37 -29 -150 -82 -211 -99 -58 -17 -146 -61 -193 -97
l-24 -18 26 0 c15 0 64 9 110 20 46 10 101 20 121 22 29 2 50 15 104 64 84 77
137 162 67 108z"/>
<path d="M2554 942 c10 -12 40 -36 67 -54 27 -18 49 -37 49 -41 0 -5 -29 12
-64 37 -36 25 -71 46 -78 46 -8 0 -33 -16 -56 -36 -28 -24 -40 -29 -35 -17 3
10 3 15 -1 12 -13 -12 -15 -53 -3 -68 10 -12 9 -13 -3 -6 -9 5 -8 0 4 -13 21
-24 31 -29 20 -9 -4 6 2 4 14 -7 12 -10 19 -23 16 -28 -3 -4 -2 -7 3 -6 4 1
38 -13 75 -31 67 -33 69 -34 175 -28 106 5 222 32 206 48 -4 4 -24 11 -42 14
-47 8 -159 68 -249 132 -40 29 -83 58 -95 64 -22 12 -22 12 -3 -9z"/>
<path d="M908 905 c-4 -34 6 -65 20 -65 5 0 13 18 19 40 9 36 8 42 -8 50 -26
14 -26 14 -31 -25z"/>
<path d="M1966 845 c-131 -66 -140 -72 -149 -105 -10 -42 -18 -51 -60 -68 -52
-20 141 -6 243 18 140 34 153 39 146 64 -3 11 -13 53 -23 91 l-18 70 -139 -70z"/>
<path d="M773 892 c-1 -9 -3 -22 -5 -28 -5 -18 85 -86 93 -71 22 39 14 58 -36
87 -44 25 -51 27 -52 12z"/>
<path d="M3620 890 c-6 -11 -8 -20 -6 -20 3 0 10 9 16 20 6 11 8 20 6 20 -3 0
-10 -9 -16 -20z"/>
<path d="M1015 858 c-6 -31 -3 -42 10 -52 16 -12 16 -13 1 -19 -9 -4 -16 -13
-16 -22 0 -8 -14 -21 -32 -28 l-31 -13 48 -32 c96 -64 325 -133 377 -113 21 8
19 11 -32 34 -30 15 -77 30 -105 34 l-50 8 54 3 53 3 -4 54 c-6 73 -26 89
-205 158 l-62 24 -6 -39z"/>
<path d="M1300 831 c0 -49 1 -51 41 -71 23 -12 43 -19 45 -17 8 7 -17 101 -30
113 -6 7 -21 15 -33 19 -22 6 -23 4 -23 -44z"/>
<path d="M2380 861 c0 -6 4 -13 10 -16 6 -3 7 1 4 9 -7 18 -14 21 -14 7z"/>
<path d="M751 791 c-17 -57 -15 -60 32 -56 23 2 46 4 50 4 5 1 5 6 2 11 -3 6
-1 10 6 10 17 0 -12 30 -49 52 l-29 17 -12 -38z"/>
<path d="M906 818 c-19 -61 -11 -70 12 -15 7 17 8 27 1 27 -5 0 -11 -6 -13
-12z"/>
<path d="M965 795 c-3 -8 -7 -22 -10 -30 -3 -11 3 -14 20 -13 18 2 25 8 25 24
0 26 -29 41 -35 19z"/>
<path d="M867 763 c-4 -3 -7 -15 -7 -25 0 -10 -8 -19 -17 -20 -10 0 -22 -2
-28 -3 -5 -2 -25 -3 -43 -4 -24 -1 -35 -7 -41 -23 -8 -22 -6 -23 53 -28 59 -5
61 -4 73 22 11 25 24 88 19 88 -2 0 -6 -3 -9 -7z"/>
<path d="M1300 747 c0 -31 13 -86 19 -82 4 2 25 5 47 6 36 2 40 5 36 24 -4 24
-102 73 -102 52z"/>
<path d="M1723 742 c-23 -9 -45 -23 -48 -30 -4 -10 0 -12 12 -7 10 4 33 9 51
12 18 3 37 14 43 24 12 23 1 23 -58 1z"/>
<path d="M870 670 c-13 -27 -37 -62 -53 -77 l-30 -28 22 33 c13 18 22 35 20
37 -2 2 -28 5 -58 6 l-54 3 -22 -44 c-24 -46 -23 -62 4 -94 24 -28 68 -44 150
-52 69 -6 73 -6 68 12 -3 10 -7 72 -9 136 -2 65 -6 118 -9 118 -3 0 -16 -22
-29 -50z"/>
<path d="M918 687 c-6 -63 13 -222 28 -237 12 -12 53 -15 237 -15 241 0 288 8
229 39 -41 21 -148 46 -181 42 -14 -2 -20 -1 -13 1 22 8 13 18 -40 43 -29 14
-66 34 -83 45 -16 12 -62 42 -102 67 l-72 47 -3 -32z"/>
<path d="M1622 704 c-29 -20 -28 -34 3 -34 14 0 25 4 25 9 0 5 3 16 6 25 8 20
-5 20 -34 0z"/>
<path d="M1736 701 c-33 -9 -61 -22 -64 -28 -4 -15 14 -18 22 -4 4 5 24 12 45
16 22 4 45 13 52 21 6 8 10 13 8 13 -2 -1 -31 -9 -63 -18z"/>
<path d="M2520 716 c0 -2 8 -10 18 -17 15 -13 16 -12 3 4 -13 16 -21 21 -21
13z"/>
<path d="M2150 703 c-8 -4 -31 -22 -50 -42 -35 -35 -186 -116 -264 -141 -71
-23 -17 -35 176 -38 l177 -4 7 29 c13 47 7 138 -10 171 -9 18 -18 32 -19 31
-1 0 -9 -3 -17 -6z"/>
<path d="M2005 674 c-40 -11 -251 -34 -311 -34 -7 0 -20 -12 -28 -27 -9 -16
-15 -21 -16 -13 0 13 -1 13 -10 0 -14 -22 -22 -6 -11 23 8 21 7 26 -11 30 -29
8 -42 -11 -46 -63 -2 -25 -5 -57 -6 -72 -5 -45 20 -33 34 17 12 44 35 59 46
31 3 -8 26 -23 50 -33 51 -21 57 -39 14 -45 -32 -5 -43 8 -12 14 12 3 5 10
-25 28 -24 13 -43 28 -44 34 -1 14 -17 -34 -18 -56 -1 -14 5 -16 29 -11 18 3
30 1 30 -5 0 -6 -19 -12 -42 -14 l-43 -3 70 -22 c39 -12 97 -29 130 -38 74
-19 304 -40 339 -31 21 5 56 49 56 69 0 3 -75 7 -167 10 -93 3 -186 11 -208
18 -22 7 -43 12 -47 11 -5 -1 -8 4 -8 12 0 7 15 16 34 19 70 11 326 130 312
145 -3 2 -40 -10 -83 -26 -93 -36 -191 -65 -178 -54 6 5 63 28 128 51 64 24
117 45 117 47 0 6 -22 3 -75 -12z"/>
<path d="M3088 643 c7 -3 16 -2 19 1 4 3 -2 6 -13 5 -11 0 -14 -3 -6 -6z"/>
<path d="M1169 581 c70 -34 90 -40 125 -35 30 4 37 3 26 -5 -19 -13 -15 -16
42 -30 64 -15 65 -15 60 17 -3 26 -6 27 -65 28 -52 2 -133 21 -252 59 -11 4
18 -12 64 -34z"/>
<path d="M646 504 c-7 -26 8 -88 26 -111 6 -7 8 -18 6 -24 -2 -7 -14 7 -27 32
l-23 44 6 -69 c3 -38 15 -88 26 -112 28 -58 62 -68 189 -60 239 17 370 40 504
87 l87 31 0 52 0 51 -237 -3 c-218 -3 -269 -7 -236 -19 21 -8 59 -42 46 -43
-6 0 -29 15 -52 34 -34 28 -53 35 -123 46 -97 14 -140 32 -158 65 -17 32 -26
31 -34 -1z"/>
<path d="M1551 324 c0 -11 3 -14 6 -6 3 7 2 16 -1 19 -3 4 -6 -2 -5 -13z"/>
<path d="M1670 330 c8 -5 20 -10 25 -10 6 0 3 5 -5 10 -8 5 -19 10 -25 10 -5
0 -3 -5 5 -10z"/>
<path d="M1561 264 c0 -11 3 -14 6 -6 3 7 2 16 -1 19 -3 4 -6 -2 -5 -13z"/>
<path d="M2093 273 c9 -2 25 -2 35 0 9 3 1 5 -18 5 -19 0 -27 -2 -17 -5z"/>
<path d="M2283 273 c9 -2 23 -2 30 0 6 3 -1 5 -18 5 -16 0 -22 -2 -12 -5z"/>
</g>
</svg>
